<?xml version="1.0" encoding="utf-8"?>
<!-- Generator: Adobe Illustrator 19.0.0, SVG Export Plug-In . SVG Version: 6.00 Build 0)  -->
<svg version="1.1" id="google" xmlns="http://www.w3.org/2000/svg" xmlns:xlink="http://www.w3.org/1999/xlink" x="0px" y="0px"
	 viewBox="0 0 4.6 7" style="enable-background:new 0 0 4.6 7;" xml:space="preserve">
<path id="XMLID_5_" d="M3.6,4.1C3.4,3.9,3.1,3.6,3.1,3.4c0-0.2,0.1-0.3,0.4-0.6c0.4-0.3,0.6-0.7,0.6-1.1c0-0.6-0.2-1.1-0.7-1.3h0.7
	L4.6,0c0,0-1.6,0-2.2,0c-1,0-1.9,0.7-1.9,1.6c0,0.9,0.7,1.6,1.7,1.6c0.1,0,0.1,0,0.2,0C2.3,3.3,2.2,3.4,2.2,3.6
	c0,0.2,0.1,0.4,0.3,0.6c-0.1,0-0.2,0-0.4,0C0.9,4.2,0,5,0,5.8C0,6.6,1,7,2.2,7c1.4,0,2.2-0.8,2.2-1.6C4.4,4.8,4.2,4.5,3.6,4.1z
	 M2.5,3c-0.6,0-1.1-0.6-1.2-1.4C1.2,0.9,1.5,0.3,2.1,0.3c0.6,0,1.1,0.6,1.2,1.3C3.4,2.4,3,3,2.5,3z M2.2,6.7c-0.8,0-1.4-0.5-1.4-1.2
	c0-0.6,0.7-1.1,1.6-1.1c0.2,0,0.4,0,0.5,0.1C3.4,4.8,3.7,5,3.8,5.3c0,0.1,0,0.1,0,0.2C3.8,6.2,3.4,6.7,2.2,6.7z"/>
</svg>
